<svg width="24" height="25" viewBox="0 0 24 25" fill="none" xmlns="http://www.w3.org/2000/svg">
<path d="M12 10.25C11.9 10.25 11.81 10.23 11.71 10.19C11.43 10.08 11.25 9.8 11.25 9.5V2.5C11.25 2.09 11.59 1.75 12 1.75C12.41 1.75 12.75 2.09 12.75 2.5V7.69L13.47 6.97C13.76 6.68 14.24 6.68 14.53 6.97C14.82 7.26 14.82 7.74 14.53 8.03L12.53 10.03C12.39 10.17 12.2 10.25 12 10.25Z" fill="#292D32"/>
<path d="M11.9999 10.2499C11.8099 10.2499 11.6199 10.1799 11.4699 10.0299L9.46994 8.02994C9.17994 7.73994 9.17994 7.25994 9.46994 6.96994C9.75994 6.67994 10.2399 6.67994 10.5299 6.96994L12.5299 8.96994C12.8199 9.25994 12.8199 9.73994 12.5299 10.0299C12.3799 10.1799 12.1899 10.2499 11.9999 10.2499Z" fill="#292D32"/>
<path d="M13.76 18.25H10.23C9.17998 18.25 8.23998 17.67 7.76998 16.73L6.59998 14.39C6.55998 14.3 6.46998 14.25 6.37998 14.25H1.97998C1.56998 14.25 1.22998 13.91 1.22998 13.5C1.22998 13.09 1.56998 12.75 1.97998 12.75H6.38998C7.05998 12.75 7.65998 13.12 7.95998 13.72L9.12998 16.06C9.33998 16.49 9.76998 16.75 10.25 16.75H13.78C14.26 16.75 14.69 16.49 14.9 16.06L16.07 13.72C16.37 13.12 16.97 12.75 17.64 12.75H22C22.41 12.75 22.75 13.09 22.75 13.5C22.75 13.91 22.41 14.25 22 14.25H17.64C17.54 14.25 17.46 14.3 17.42 14.39L16.25 16.73C15.75 17.67 14.81 18.25 13.76 18.25Z" fill="#292D32"/>
<path d="M15 23.2499H9C3.57 23.2499 1.25 20.9299 1.25 15.4999V11.4999C1.25 6.80993 2.99 4.45993 6.89 3.88993C7.31 3.82993 7.68 4.10993 7.74 4.51993C7.8 4.92993 7.52 5.30993 7.11 5.36993C3.97 5.82993 2.75 7.54993 2.75 11.4999V15.4999C2.75 20.1099 4.39 21.7499 9 21.7499H15C19.61 21.7499 21.25 20.1099 21.25 15.4999V11.4999C21.25 7.54993 20.03 5.82993 16.89 5.36993C16.48 5.30993 16.2 4.92993 16.26 4.51993C16.32 4.10993 16.7 3.82993 17.11 3.88993C21.01 4.45993 22.75 6.80993 22.75 11.4999V15.4999C22.75 20.9299 20.43 23.2499 15 23.2499Z" fill="#292D32"/>
</svg>
