<svg width="160" height="24" viewBox="0 0 160 24" fill="none" xmlns="http://www.w3.org/2000/svg">
<path d="M13.7299 3.51001L15.4899 7.03001C15.7299 7.52001 16.3699 7.99001 16.9099 8.08001L20.0999 8.61001C22.1399 8.95001 22.6199 10.43 21.1499 11.89L18.6699 14.37C18.2499 14.79 18.0199 15.6 18.1499 16.18L18.8599 19.25C19.4199 21.68 18.1299 22.62 15.9799 21.35L12.9899 19.58C12.4499 19.26 11.5599 19.26 11.0099 19.58L8.01991 21.35C5.87991 22.62 4.57991 21.67 5.13991 19.25L5.84991 16.18C5.97991 15.6 5.74991 14.79 5.32991 14.37L2.84991 11.89C1.38991 10.43 1.85991 8.95001 3.89991 8.61001L7.08991 8.08001C7.61991 7.99001 8.25991 7.52001 8.49991 7.03001L10.2599 3.51001C11.2199 1.60001 12.7799 1.60001 13.7299 3.51001Z" fill="#FFCC00"/>
<path d="M47.7299 3.51001L49.4899 7.03001C49.7299 7.52001 50.3699 7.99001 50.9099 8.08001L54.0999 8.61001C56.1399 8.95001 56.6199 10.43 55.1499 11.89L52.6699 14.37C52.2499 14.79 52.0199 15.6 52.1499 16.18L52.8599 19.25C53.4199 21.68 52.1299 22.62 49.9799 21.35L46.9899 19.58C46.4499 19.26 45.5599 19.26 45.0099 19.58L42.0199 21.35C39.8799 22.62 38.5799 21.67 39.1399 19.25L39.8499 16.18C39.9799 15.6 39.7499 14.79 39.3299 14.37L36.8499 11.89C35.3899 10.43 35.8599 8.95001 37.8999 8.61001L41.0899 8.08001C41.6199 7.99001 42.2599 7.52001 42.4999 7.03001L44.2599 3.51001C45.2199 1.60001 46.7799 1.60001 47.7299 3.51001Z" fill="#FFCC00"/>
<path d="M81.7299 3.51001L83.4899 7.03001C83.7299 7.52001 84.3699 7.99001 84.9099 8.08001L88.0999 8.61001C90.1399 8.95001 90.6199 10.43 89.1499 11.89L86.6699 14.37C86.2499 14.79 86.0199 15.6 86.1499 16.18L86.8599 19.25C87.4199 21.68 86.1299 22.62 83.9799 21.35L80.9899 19.58C80.4499 19.26 79.5599 19.26 79.0099 19.58L76.0199 21.35C73.8799 22.62 72.5799 21.67 73.1399 19.25L73.8499 16.18C73.9799 15.6 73.7499 14.79 73.3299 14.37L70.8499 11.89C69.3899 10.43 69.8599 8.95001 71.8999 8.61001L75.0899 8.08001C75.6199 7.99001 76.2599 7.52001 76.4999 7.03001L78.2599 3.51001C79.2199 1.60001 80.7799 1.60001 81.7299 3.51001Z" fill="#FFCC00"/>
<path d="M115.73 3.51001L117.49 7.03001C117.73 7.52001 118.37 7.99001 118.91 8.08001L122.1 8.61001C124.14 8.95001 124.62 10.43 123.15 11.89L120.67 14.37C120.25 14.79 120.02 15.6 120.15 16.18L120.86 19.25C121.42 21.68 120.13 22.62 117.98 21.35L114.99 19.58C114.45 19.26 113.56 19.26 113.01 19.58L110.02 21.35C107.88 22.62 106.58 21.67 107.14 19.25L107.85 16.18C107.98 15.6 107.75 14.79 107.33 14.37L104.85 11.89C103.39 10.43 103.86 8.95001 105.9 8.61001L109.09 8.08001C109.62 7.99001 110.26 7.52001 110.5 7.03001L112.26 3.51001C113.22 1.60001 114.78 1.60001 115.73 3.51001Z" fill="#FFCC00"/>
<path d="M153.66 22.6699C153.13 22.6699 152.45 22.4999 151.6 21.9999L148.61 20.2299C148.3 20.0499 147.7 20.0499 147.4 20.2299L144.4 21.9999C142.63 23.0499 141.59 22.6299 141.12 22.2899C140.66 21.9499 139.94 21.0799 140.41 19.0799L141.12 16.0099C141.2 15.6899 141.04 15.1399 140.8 14.8999L138.32 12.4199C137.08 11.1799 137.18 10.1199 137.35 9.59995C137.52 9.07995 138.06 8.15995 139.78 7.86995L142.97 7.33995C143.27 7.28995 143.7 6.96995 143.83 6.69995L145.6 3.16995C146.4 1.55995 147.45 1.31995 148 1.31995C148.55 1.31995 149.6 1.55995 150.4 3.16995L152.16 6.68995C152.3 6.95995 152.73 7.27995 153.03 7.32995L156.22 7.85995C157.95 8.14995 158.49 9.06995 158.65 9.58995C158.81 10.1099 158.91 11.1699 157.68 12.4099L155.2 14.8999C154.96 15.1399 154.81 15.6799 154.88 16.0099L155.59 19.0799C156.05 21.0799 155.34 21.9499 154.88 22.2899C154.63 22.4699 154.23 22.6699 153.66 22.6699ZM148 18.5899C148.49 18.5899 148.98 18.7099 149.37 18.9399L152.36 20.7099C153.23 21.2299 153.78 21.2299 153.99 21.0799C154.2 20.9299 154.35 20.3999 154.13 19.4199L153.42 16.3499C153.23 15.5199 153.54 14.4499 154.14 13.8399L156.62 11.3599C157.11 10.8699 157.33 10.3899 157.23 10.0599C157.12 9.72995 156.66 9.45995 155.98 9.34995L152.79 8.81995C152.02 8.68995 151.18 8.06995 150.83 7.36995L149.07 3.84995C148.75 3.20995 148.35 2.82995 148 2.82995C147.65 2.82995 147.25 3.20995 146.94 3.84995L145.17 7.36995C144.82 8.06995 143.98 8.68995 143.21 8.81995L140.03 9.34995C139.35 9.45995 138.89 9.72995 138.78 10.0599C138.67 10.3899 138.9 10.8799 139.39 11.3599L141.87 13.8399C142.47 14.4399 142.78 15.5199 142.59 16.3499L141.88 19.4199C141.65 20.4099 141.81 20.9299 142.02 21.0799C142.23 21.2299 142.77 21.2199 143.65 20.7099L146.64 18.9399C147.02 18.7099 147.51 18.5899 148 18.5899Z" fill="#292D32"/>
</svg>
